<svg version="1.1" id="Layer_1" xmlns="http://www.w3.org/2000/svg" xmlns:xlink="http://www.w3.org/1999/xlink" x="0px" y="0px"
	 width="100%" viewBox="0 0 3430 1435" enable-background="new 0 0 3430 1435" xml:space="preserve">
<path fill="#000000" opacity="1.000000" stroke="none" 
	d="
M2364.000000,1438.000000 
	C1576.000000,1438.000000 789.000000,1438.000000 2.000000,1438.000000 
	C2.000000,959.333313 2.000000,480.666656 2.000000,2.000000 
	C1145.333374,2.000000 2288.666748,2.000000 3432.000000,2.000000 
	C3432.000000,480.666656 3432.000000,959.333313 3432.000000,1438.000000 
	C3076.333252,1438.000000 2720.666748,1438.000000 2364.000000,1438.000000 
M3312.072021,1318.892578 
	C3312.072021,1318.892578 3311.989746,1318.025269 3312.610596,1316.496948 
	C3313.013916,1311.202515 3313.769775,1305.908081 3313.770508,1300.613647 
	C3313.825195,892.663757 3313.822266,484.713898 3313.814453,76.764038 
	C3313.814209,58.122166 3313.735107,58.084045 3294.643066,58.051685 
	C3291.643555,58.046600 3288.643799,58.050045 3285.644287,58.050045 
	C2241.105957,58.050003 1196.567749,58.049973 152.029419,58.051182 
	C147.030075,58.051186 142.028778,57.982975 137.031769,58.095863 
	C125.821945,58.349102 124.189148,59.921661 123.881012,70.789604 
	C123.748817,75.452248 123.824509,80.121094 123.824493,84.787125 
	C123.822777,488.404175 123.822639,892.021240 123.824738,1295.638306 
	C123.824776,1302.970581 123.852493,1310.302979 123.022614,1318.095459 
	C122.834602,1318.353882 122.433388,1318.758057 122.493813,1318.846313 
	C122.835709,1319.345825 123.288200,1319.769775 125.305321,1320.766968 
	C132.617020,1321.087280 139.928726,1321.687866 147.240448,1321.688110 
	C1194.223145,1321.729736 2241.205811,1321.727661 3288.188477,1321.725708 
	C3292.521729,1321.725708 3296.873535,1321.939941 3301.182129,1321.605713 
	C3304.776123,1321.326782 3308.318604,1320.389160 3312.072021,1318.892578 
z"/>
<path fill="#231F20" opacity="1.000000" stroke="none" 
	d="
M123.867294,1317.635254 
	C123.852493,1310.302979 123.824776,1302.970581 123.824738,1295.638306 
	C123.822639,892.021240 123.822777,488.404175 123.824493,84.787125 
	C123.824509,80.121094 123.748817,75.452248 123.881012,70.789604 
	C124.189148,59.921661 125.821945,58.349102 137.031769,58.095863 
	C142.028778,57.982975 147.030075,58.051186 152.029419,58.051182 
	C1196.567749,58.049973 2241.105957,58.050003 3285.644287,58.050045 
	C3288.643799,58.050045 3291.643555,58.046600 3294.643066,58.051685 
	C3313.735107,58.084045 3313.814209,58.122166 3313.814453,76.764038 
	C3313.822266,484.713898 3313.825195,892.663757 3313.770508,1300.613647 
	C3313.769775,1305.908081 3313.013916,1311.202515 3311.413086,1317.251709 
	C2253.425049,1318.004395 1196.634888,1318.002686 139.844635,1317.984863 
	C134.518860,1317.984863 129.193069,1317.756836 123.867294,1317.635254 
z"/>
<path fill="#558586" opacity="1.000000" stroke="none" 
	d="
M123.444954,1317.865356 
	C129.193069,1317.756836 134.518860,1317.984863 139.844635,1317.984863 
	C1196.634888,1318.002686 2253.425049,1318.004395 3311.102539,1318.015869 
	C3311.989746,1318.025269 3312.072021,1318.892578 3311.049561,1319.343506 
	C3304.694824,1319.801392 3299.362793,1319.814819 3294.030518,1319.814819 
	C2242.912354,1319.815796 1191.794312,1319.815063 140.676178,1319.832397 
	C135.018463,1319.832520 129.360733,1320.084839 123.703018,1320.219360 
	C123.288200,1319.769775 122.835709,1319.345825 122.493813,1318.846313 
	C122.433388,1318.758057 122.834602,1318.353882 123.444954,1317.865356 
z"/>
<path fill="#231F20" opacity="1.000000" stroke="none" 
	d="
M124.504166,1320.493164 
	C129.360733,1320.084839 135.018463,1319.832520 140.676178,1319.832397 
	C1191.794312,1319.815063 2242.912354,1319.815796 3294.030518,1319.814819 
	C3299.362793,1319.814819 3304.694824,1319.801392 3310.955566,1319.768799 
	C3308.318604,1320.389160 3304.776123,1321.326782 3301.182129,1321.605713 
	C3296.873535,1321.939941 3292.521729,1321.725708 3288.188477,1321.725708 
	C2241.205811,1321.727661 1194.223145,1321.729736 147.240448,1321.688110 
	C139.928726,1321.687866 132.617020,1321.087280 124.504166,1320.493164 
z"/>
</svg>